<?xml version="1.0" encoding="utf-8"?>
<!-- Generator: Adobe Illustrator 16.0.0, SVG Export Plug-In . SVG Version: 6.00 Build 0)  -->
<!DOCTYPE svg PUBLIC "-//W3C//DTD SVG 1.1 Basic//EN" "http://www.w3.org/Graphics/SVG/1.1/DTD/svg11-basic.dtd">
<svg version="1.1" baseProfile="basic" id="Capa_1" xmlns="http://www.w3.org/2000/svg" xmlns:xlink="http://www.w3.org/1999/xlink"
	 x="0px" y="0px" width="363.565px" height="57px" viewBox="0 0 363.565 57" xml:space="preserve">
<linearGradient id="SVGID_1_" gradientUnits="userSpaceOnUse" x1="34.9131" y1="24.0547" x2="314.9135" y2="24.0547">
	<stop  offset="0" style="stop-color:#FBB03B"/>
	<stop  offset="1" style="stop-color:#ED1C24"/>
</linearGradient>
<path fill="url(#SVGID_1_)" d="M32.977,6.087c-1.378,0-2.265,0.837-2.904,0.837s-2.56-0.837-4.972-0.837
	c-6.793,0-13.389,4.037-13.389,11.42c0,9.402,11.715,11.223,11.715,15.555c0,1.871-1.624,2.806-3.298,2.806
	c-2.658,0-4.135-2.461-5.021-4.677c-0.738-1.919-1.477-4.233-3.988-4.233c-2.657,0-3.839,2.166-3.839,4.578
	c0,7.433,7.039,10.485,13.536,10.485c7.482,0,16.344-3.839,16.344-12.503c0-6.547-4.824-8.959-9.895-11.716
	c-1.428-0.738-3.052-1.723-3.052-3.544c0-1.378,1.034-2.067,2.313-2.067c3.298,0,4.332,5.119,7.926,5.119
	c2.264,0,3.839-2.018,3.839-4.184C38.293,10.567,35.881,6.087,32.977,6.087z"/>
<g>
	<path fill="none" d="M55.129,21.15c-2.067,0-2.56,3.15-2.904,4.676c-0.542,2.658-0.984,6.005-0.984,8.713
		c0,1.132,0.296,2.264,1.575,2.264c2.067,0,2.461-2.953,2.756-4.43c0.492-2.51,1.182-6.301,1.182-8.811
		C56.753,22.43,56.507,21.15,55.129,21.15z"/>
	<linearGradient id="SVGID_2_" gradientUnits="userSpaceOnUse" x1="34.9131" y1="28.9766" x2="314.9135" y2="28.9766">
		<stop  offset="0" style="stop-color:#FBB03B"/>
		<stop  offset="1" style="stop-color:#ED1C24"/>
	</linearGradient>
	<path fill="url(#SVGID_2_)" d="M56.753,15.932c-9.352,0-16.736,6.941-16.736,16.343c0,6.448,5.07,9.747,11.224,9.747
		c9.353,0,16.737-6.941,16.737-16.343C67.978,19.23,62.907,15.932,56.753,15.932z M55.571,32.373
		c-0.295,1.477-0.688,4.43-2.756,4.43c-1.279,0-1.575-1.132-1.575-2.264c0-2.708,0.442-6.055,0.984-8.713
		c0.345-1.526,0.837-4.676,2.904-4.676c1.378,0,1.624,1.28,1.624,2.412C56.753,26.072,56.063,29.863,55.571,32.373z"/>
</g>
<linearGradient id="SVGID_3_" gradientUnits="userSpaceOnUse" x1="34.9131" y1="28.9766" x2="314.9135" y2="28.9766">
	<stop  offset="0" style="stop-color:#FBB03B"/>
	<stop  offset="1" style="stop-color:#ED1C24"/>
</linearGradient>
<path fill="url(#SVGID_3_)" d="M89.587,28.534c3.102,0,5.859-2.954,5.76-6.055c-0.146-4.578-4.281-6.547-8.27-6.547
	c-8.959,0-17.18,7.679-17.18,16.786c0,6.596,4.676,9.304,10.73,9.304c3.496,0,6.498-0.886,9.502-2.56
	c1.377-0.738,3.592-2.117,3.592-3.889c0-1.083-0.639-2.708-1.918-2.708c-0.887,0-1.674,0.591-2.412,1.034
	c-1.527,0.886-3.15,1.723-4.973,1.723c-2.117,0-2.461-2.461-2.461-4.037c0-2.215,0.887-10.239,3.938-10.189
	c0.492,0,0.887,0.394,0.887,0.886c0,0.837-0.838,1.969-0.838,3.298C85.944,27.451,87.964,28.534,89.587,28.534z"/>
<g>
	<linearGradient id="SVGID_4_" gradientUnits="userSpaceOnUse" x1="34.9131" y1="10.1294" x2="314.9135" y2="10.1294">
		<stop  offset="0" style="stop-color:#FBB03B"/>
		<stop  offset="1" style="stop-color:#ED1C24"/>
	</linearGradient>
	<path fill="url(#SVGID_4_)" d="M110.165,5.792c-3.15,0-10.189,2.018-10.189,5.956c0,2.166,2.707,2.609,4.381,2.708
		c2.953,0.197,9.846-2.265,9.895-5.858C114.3,6.481,111.937,5.792,110.165,5.792z"/>
	<linearGradient id="SVGID_5_" gradientUnits="userSpaceOnUse" x1="34.9131" y1="29.2476" x2="314.9135" y2="29.2476">
		<stop  offset="0" style="stop-color:#FBB03B"/>
		<stop  offset="1" style="stop-color:#ED1C24"/>
	</linearGradient>
	<path fill="url(#SVGID_5_)" d="M111.544,25.728c0.098-0.689,0.836-4.874,0.836-6.99c0-1.477-0.689-2.264-2.215-2.264
		c-2.51,0-6.252,1.083-8.564,2.067c-1.625,0.689-3.889,1.625-3.889,3.741c0,1.772,1.182,1.723,1.92,1.723
		c0.836,0,1.082,0.345,1.082,0.985c0,0.64-0.246,1.575-0.443,2.707l-1.279,8.368c-0.148,0.936-0.295,1.821-0.295,2.757
		c0,2.067,2.117,3.2,3.986,3.2c2.807,0,10.584-2.265,10.584-6.005c0-1.182-0.689-1.231-1.625-1.231c-0.787,0-1.428,0-1.328-0.935
		C110.56,31.93,111.444,26.27,111.544,25.728z"/>
</g>
<g>
	<path fill="none" d="M132.218,21.691c-2.607,0.197-5.906,7.531-5.857,10.682c0,0.738,0.148,2.019,1.133,1.92
		c2.609-0.197,5.809-8.565,5.711-11.026C133.204,22.626,133.007,21.642,132.218,21.691z"/>
	<linearGradient id="SVGID_6_" gradientUnits="userSpaceOnUse" x1="34.9131" y1="29.0996" x2="314.9135" y2="29.0996">
		<stop  offset="0" style="stop-color:#FBB03B"/>
		<stop  offset="1" style="stop-color:#ED1C24"/>
	</linearGradient>
	<path fill="url(#SVGID_6_)" d="M142.851,34.49c-0.541-0.049-0.885,0-1.082-0.59c-0.295-0.788-0.1-2.363-0.049-3.15
		c0.393-5.316,1.279-9.747,1.477-12.7c0.098-1.378-0.641-1.871-2.02-1.871c-1.525,0-2.805,0.591-4.184,1.28
		c-0.443,0.246-1.328,0.788-1.871,0.788c-1.426,0-2.805-2.363-6.25-2.018c-7.582,0.689-13.094,8.959-13.488,17.819
		c-0.197,3.987,1.674,7.975,6.203,7.975c5.07,0,7.48-4.431,8.762-4.431c1.574,0-0.541,4.185,3.84,4.185
		c2.707,0,9.893-2.855,9.893-6.055C144.081,34.933,143.589,34.588,142.851,34.49z M127.493,34.293
		c-0.984,0.099-1.133-1.182-1.133-1.92c-0.049-3.15,3.25-10.485,5.857-10.682c0.789-0.049,0.986,0.935,0.986,1.575
		C133.302,25.728,130.103,34.096,127.493,34.293z"/>
</g>
<linearGradient id="SVGID_7_" gradientUnits="userSpaceOnUse" x1="34.9131" y1="24.251" x2="314.9135" y2="24.251">
	<stop  offset="0" style="stop-color:#FBB03B"/>
	<stop  offset="1" style="stop-color:#ED1C24"/>
</linearGradient>
<path fill="url(#SVGID_7_)" d="M161.655,34.244c-0.492,0-0.984,0.148-1.477,0.148c-0.787,0-0.836-1.132-0.836-1.723l2.609-23.825
	c0-1.92-1.084-2.363-2.807-2.363c-2.51,0-5.76,0.788-8.172,1.575c-1.969,0.64-4.232,1.428-4.232,3.889
	c0,0.984,0.541,1.428,1.525,1.428c0.395,0,0.787-0.099,1.182-0.099c0.838,0,1.033,0.394,0.936,1.182
	c-0.641,5.759-2.166,14.816-2.855,22.791c-0.295,3.544,1.33,4.775,3.988,4.775c3.199,0,11.223-2.166,11.223-6.251
	C162.739,35.081,162.493,34.244,161.655,34.244z"/>
<linearGradient id="SVGID_8_" gradientUnits="userSpaceOnUse" x1="29.9131" y1="24.0547" x2="309.9135" y2="24.0547">
	<stop  offset="0" style="stop-color:#FBB03B"/>
	<stop  offset="1" style="stop-color:#ED1C24"/>
</linearGradient>
<path fill="url(#SVGID_8_)" d="M199.04,6.087c-1.379,0-2.264,0.837-2.904,0.837s-2.559-0.837-4.971-0.837
	c-6.793,0-13.391,4.037-13.391,11.42c0,9.402,11.717,11.223,11.717,15.555c0,1.871-1.625,2.806-3.299,2.806
	c-2.658,0-4.135-2.461-5.021-4.677c-0.738-1.919-1.477-4.233-3.986-4.233c-2.658,0-3.84,2.166-3.84,4.578
	c0,7.433,7.039,10.485,13.537,10.485c7.482,0,16.342-3.839,16.342-12.503c0-6.547-4.824-8.959-9.895-11.716
	c-1.426-0.738-3.051-1.723-3.051-3.544c0-1.378,1.033-2.067,2.312-2.067c3.299,0,4.332,5.119,7.926,5.119
	c2.264,0,3.84-2.018,3.84-4.184C204.356,10.567,201.944,6.087,199.04,6.087z"/>
<linearGradient id="SVGID_9_" gradientUnits="userSpaceOnUse" x1="29.9131" y1="25.605" x2="309.9135" y2="25.605">
	<stop  offset="0" style="stop-color:#FBB03B"/>
	<stop  offset="1" style="stop-color:#ED1C24"/>
</linearGradient>
<path fill="url(#SVGID_9_)" d="M224.343,16.572c-1.477,0-3.1,0.493-3.1-0.984c0-0.788,0.344-3.593,0.441-4.578
	c0-1.28-0.639-1.821-1.869-1.821c-1.92,0-4.432,0.246-6.154,1.083c-1.328,0.64-1.869,2.068-2.312,3.544
	c-0.689,2.264-0.838,2.756-2.412,2.954c-2.068,0.197-3.102,1.378-3.102,3.495c0,1.329,0.641,1.674,1.82,1.674
	c1.971,0,2.117,0.246,1.773,2.166l-1.477,8.664c-0.246,1.526-0.492,3.101-0.492,4.676c0,3.15,1.969,4.578,4.922,4.578
	c2.855,0,12.207-3.15,12.207-6.99c0-0.837-0.295-1.772-1.328-1.772c-0.738,0-1.625,0.935-2.807,0.935
	c-1.23,0-1.869-1.329-1.377-3.495l0.639-4.874c0.738-4.282,0.738-4.135,4.135-4.135c1.33,0,1.33-1.034,1.477-2.117
	c0.1-0.64,0.246-1.428,0.246-2.117C225.573,16.72,224.983,16.572,224.343,16.572z"/>
<linearGradient id="SVGID_10_" gradientUnits="userSpaceOnUse" x1="29.9131" y1="29.0693" x2="309.9135" y2="29.0693">
	<stop  offset="0" style="stop-color:#FBB03B"/>
	<stop  offset="1" style="stop-color:#ED1C24"/>
</linearGradient>
<path fill="url(#SVGID_10_)" d="M246.544,16.117c-4.578,0-4.43,4.726-5.857,4.726c-1.576,0-0.246-4.677-3.25-4.677
	c-1.574,0-3.199,0.592-4.527,1.28c-1.871,0.936-5.857,1.723-5.857,4.381c0,1.772,0.787,2.166,2.312,2.166
	c1.33,0,1.477,0.394,1.428,1.724c-0.098,4.577-2.066,10.73-2.066,13.684c0,2.215,1.969,2.707,3.789,2.609
	c6.744-0.295,8.812-2.166,8.516-6.941l0.738-7.975c0.051-0.442,0.346-2.51,1.035-2.51c0.393,0,0.836,0.886,0.984,1.182
	c0.836,1.428,1.525,2.116,3.297,2.116c3.348,0,4.824-2.904,4.824-5.907C251.909,18.874,249.743,16.117,246.544,16.117z"/>
<g>
	<path fill="none" d="M264.907,28.337c1.379,0,3.791-3.643,3.643-6.005c-0.049-0.641-0.344-1.527-1.133-1.527
		c-2.018,0-3.396,4.578-3.396,6.154C264.021,27.549,264.218,28.337,264.907,28.337z"/>
	<linearGradient id="SVGID_11_" gradientUnits="userSpaceOnUse" x1="29.9131" y1="28.9766" x2="309.9135" y2="28.9766">
		<stop  offset="0" style="stop-color:#FBB03B"/>
		<stop  offset="1" style="stop-color:#ED1C24"/>
	</linearGradient>
	<path fill="url(#SVGID_11_)" d="M266.04,32.373c5.562,0,12.207-4.627,12.207-10.583c0-4.332-3.299-5.858-7.188-5.858
		c-8.959,0-18.508,6.646-18.951,16.885c-0.246,6.596,4.973,9.205,10.977,9.205c3.102,0,5.76-0.738,8.518-1.969
		c2.018-0.936,5.316-2.561,5.316-5.169c0-0.984-0.936-2.067-1.971-2.067c-1.574,0-4.281,2.806-7.826,2.806
		c-1.23,0-3.002-0.788-3.002-2.216C264.12,32.373,265.351,32.373,266.04,32.373z M264.021,26.959c0-1.576,1.379-6.154,3.396-6.154
		c0.789,0,1.084,0.887,1.133,1.527c0.148,2.362-2.264,6.005-3.643,6.005C264.218,28.337,264.021,27.549,264.021,26.959z"/>
</g>
<g>
	<path fill="none" d="M296.952,21.691c-2.607,0.197-5.906,7.531-5.857,10.682c0,0.738,0.148,2.019,1.133,1.92
		c2.609-0.197,5.809-8.564,5.711-11.026C297.938,22.627,297.741,21.643,296.952,21.691z"/>
	<linearGradient id="SVGID_12_" gradientUnits="userSpaceOnUse" x1="29.9131" y1="29.0996" x2="309.9135" y2="29.0996">
		<stop  offset="0" style="stop-color:#FBB03B"/>
		<stop  offset="1" style="stop-color:#ED1C24"/>
	</linearGradient>
	<path fill="url(#SVGID_12_)" d="M307.585,34.49c-0.541-0.05-0.885,0-1.082-0.591c-0.295-0.788-0.1-2.363-0.049-3.15
		c0.393-5.316,1.279-9.747,1.477-12.7c0.098-1.379-0.641-1.871-2.02-1.871c-1.525,0-2.805,0.592-4.184,1.28
		c-0.443,0.246-1.328,0.788-1.871,0.788c-1.426,0-2.805-2.363-6.25-2.019c-7.582,0.688-13.094,8.959-13.488,17.819
		c-0.197,3.987,1.674,7.975,6.203,7.975c5.07,0,7.48-4.431,8.762-4.431c1.574,0-0.541,4.185,3.84,4.185
		c2.707,0,9.893-2.855,9.893-6.055C308.815,34.934,308.323,34.588,307.585,34.49z M292.228,34.293
		c-0.984,0.099-1.133-1.182-1.133-1.92c-0.049-3.15,3.25-10.484,5.857-10.682c0.789-0.049,0.986,0.936,0.986,1.575
		C298.036,25.729,294.837,34.096,292.228,34.293z"/>
</g>
<linearGradient id="SVGID_13_" gradientUnits="userSpaceOnUse" x1="29.9131" y1="29.2129" x2="309.9135" y2="29.2129">
	<stop  offset="0" style="stop-color:#FBB03B"/>
	<stop  offset="1" style="stop-color:#ED1C24"/>
</linearGradient>
<path fill="url(#SVGID_13_)" d="M353.956,33.337c0-2.215,1.625-9.205,1.625-12.011c0-2.953-1.92-4.923-4.922-4.923
	c-5.268,0-8.713,4.431-9.502,4.431c-0.441,0-0.441-0.591-0.541-0.935c-0.689-2.314-2.855-3.496-5.168-3.496
	c-4.627,0-8.615,4.431-9.797,4.431c-0.639,0-0.738-1.181-0.738-1.624c-0.146-1.625-0.885-2.807-2.658-2.807
	c-2.658,0-5.316,1.182-7.629,2.314c-1.379,0.689-3.84,1.771-3.84,3.593c0,1.526,1.279,1.526,2.363,1.526
	c1.033,0,1.182,0.689,1.182,1.624c0,4.136-1.969,12.061-1.969,13.882c0,2.166,1.328,2.806,3.248,2.658
	c8.27-0.591,7.926-2.117,8.369-6.941c0.146-2.215,0.59-10.583,4.035-10.583c1.23,0,1.33,0.788,1.33,1.821
	c0,4.233-1.871,8.959-1.871,12.848c0,2.166,0.887,2.807,2.953,2.807c2.166,0,5.809-0.443,7.334-2.166
	c0.789-0.887,1.133-3.348,1.428-6.006c0.246-2.313,0.295-9.304,4.086-9.304c0.984,0,1.23,0.689,1.23,1.575
	c0,3.938-1.623,8.122-1.623,12.404c0.246,2.117,1.377,3.594,3.643,3.496c2.658-0.148,10.041-2.363,10.041-6.006
	C356.565,33.781,353.956,35.848,353.956,33.337z"/>
</svg>
